# xmcd CD database file
#
# Track frame offsets:
#	150
#	11875
#	24575
#	35025
#	46115
#	59845
#	73245
#	85440
#	98592
#	108930
#
# Disc length: 1623 seconds
#
# Revision: 0
# Processed by: cddbd v1.4PL0 Copyright (c) Steve Scherf et al.
# Submitted via: CDex 1.50
#
DISCID=8806550a
DTITLE=Various Artist - Country Gold
DYEAR=1900
DGENRE=Country
TTITLE0=Walkin After midnight - Patsy Cline
TTITLE1=Folsom prison blue - Johnny Cash
TTITLE2=Honky tonk angel - Dolly Parton
TTITLE3=Am I Losing you - Jim Reeves
TTITLE4=Home is where you're there - Willie Nelson
TTITLE5=Rose Garden - Lynn Anderson
TTITLE6=She thinks I Still - George Jones
TTITLE7=You win again - Jerry Lee Lewis
TTITLE8=Before The Next Tear - Freddy Fender
TTITLE9=Ruby
EXTD=
EXTT0=
EXTT1=
EXTT2=
EXTT3=
EXTT4=
EXTT5=
EXTT6=
EXTT7=
EXTT8=
EXTT9=
PLAYORDER=
